<?xml version="1.0" encoding="UTF-8" standalone="no"?>
<!-- Created with Inkscape (http://www.inkscape.org/) -->

<svg
   version="1.1"
   id="svg1"
   width="1000"
   height="1000"
   viewBox="0 0 1000 1000"
   sodipodi:docname="Rakef-Logo.svg"
   inkscape:version="1.4 (e7c3feb1, 2024-10-09)"
   xmlns:inkscape="http://www.inkscape.org/namespaces/inkscape"
   xmlns:sodipodi="http://sodipodi.sourceforge.net/DTD/sodipodi-0.dtd"
   xmlns="http://www.w3.org/2000/svg"
   xmlns:svg="http://www.w3.org/2000/svg">
  <defs
     id="defs1" />
  <sodipodi:namedview
     id="namedview1"
     pagecolor="#ffffff"
     bordercolor="#000000"
     borderopacity="0.25"
     inkscape:showpageshadow="2"
     inkscape:pageopacity="0.0"
     inkscape:pagecheckerboard="0"
     inkscape:deskcolor="#d1d1d1"
     inkscape:zoom="0.31498"
     inkscape:cx="360.34034"
     inkscape:cy="931.8052"
     inkscape:window-width="1200"
     inkscape:window-height="916"
     inkscape:window-x="1797"
     inkscape:window-y="135"
     inkscape:window-maximized="0"
     inkscape:current-layer="g1" />
  <g
     inkscape:groupmode="layer"
     inkscape:label="Image"
     id="g1"
     style="display:inline">
    <g
       id="g2">
      <path
         style="fill:#000000;stroke-width:1.62794"
         d="M 465.65108,979.1075 C 368.63577,929.6744 291.74062,874.15909 230.56725,809.38611 204.55045,781.83843 189.66014,763.11686 168.49324,731.34059 111.05549,645.11365 77.900376,540.37104 64.91661,404.12463 59.670947,349.0789 58.875601,329.57129 58.046946,235.63283 l -0.85444,-96.86243 32.33216,-6.31923 C 130.24957,124.49159 181.10745,112.00008 229.30086,98.119854 302.35293,77.080096 423.99166,34.814815 486.09576,8.8924574 l 17.48771,-7.2994066 24.02477,9.6872202 C 662.1449,65.52781 798.71857,108.26764 913.54067,132.05524 l 33.06376,6.8498 -0.1361,79.60645 c -0.22976,134.32018 -5.52558,208.04109 -20.58431,286.54543 -19.91425,103.81719 -61.45001,196.90762 -120.26358,269.53605 -53.72756,66.34778 -127.58688,126.88362 -218.17276,178.8166 -23.83498,13.66462 -82.26938,44.09923 -84.67046,44.09923 -0.55691,0 -17.26367,-8.28059 -37.12614,-18.4013 z M 313.13978,537.61572 V 289.35485 h 109.95459 c 121.18516,0 124.7343,0.24556 145.3841,10.05882 19.59087,9.31003 36.16233,30.88905 40.78083,53.10399 2.52799,12.15964 2.18556,36.71632 -0.68157,48.87815 -7.53859,31.97717 -31.70952,55.7228 -65.9845,64.82347 -9.06229,2.40621 -21.55515,2.87165 -91.48553,3.40845 -44.54451,0.34193 -80.99002,0.97149 -80.99002,1.399 0,1.23187 39.35822,55.89166 60.84224,84.49633 21.4236,28.52418 76.05502,99.59443 131.70897,171.34069 l 35.67414,45.98931 h 75.54236 c 41.54829,0 75.54235,-0.44776 75.54235,-0.99503 0,-0.54726 -2.81323,-4.39327 -6.2516,-8.54668 -3.43839,-4.15342 -37.25036,-47.84318 -75.13775,-97.08836 -37.88738,-49.24519 -71.68259,-92.91081 -75.1005,-97.03472 l -6.21435,-7.498 13.38559,-3.58609 c 7.36209,-1.97235 15.86998,-4.89747 18.90644,-6.50026 l 5.52085,-2.91415 -8.51232,-3.06099 c -36.34583,-13.06979 -41.37217,-63.24853 -8.33505,-83.2101 14.56713,-8.80171 36.33155,-8.69592 49.50022,0.24057 l 5.60249,3.80196 28.21393,-28.38138 28.21391,-28.38136 12.25517,0.46896 12.25518,0.46896 -38.94181,39.47755 -38.94182,39.47755 h -8.95424 c -5.96564,0 -9.92583,-0.87929 -11.86526,-2.63443 -4.39515,-3.97755 -16.13592,-4.76697 -22.43689,-1.50862 -5.083,2.62852 -9.90918,10.64584 -9.90918,16.46126 0,5.10271 5.36042,13.89167 9.90633,16.24245 2.5209,1.3036 7.60647,2.3702 11.30127,2.3702 5.29367,0 7.7532,-1.03536 11.60167,-4.88382 4.79008,-4.79009 5.20351,-4.88382 21.54181,-4.88382 h 16.65801 l 36.25892,-37.44262 36.25891,-37.44263 h 13.36703 13.36703 l 9.69704,9.42158 c 7.454,7.24226 11.90446,10.11479 19.24017,12.41848 31.46841,9.8822 63.31844,-13.73674 63.47788,-47.07313 0.24409,-51.03314 -68.79753,-67.37953 -91.627,-21.69373 -2.74954,5.50232 -4.99916,12.08493 -4.99916,14.62802 v 4.6238 h -13.83749 -13.83749 l -0.0179,-13.4305 c -0.01,-7.38678 -0.47199,-16.17766 -1.02697,-19.53529 l -1.00904,-6.10477 h -16.22209 c -13.65652,0 -16.95113,0.51913 -20.83196,3.28253 -18.36117,13.07429 -44.5494,13.1176 -60.34229,0.0998 -8.43061,-6.94922 -14.75518,-19.72863 -15.72149,-31.76687 -1.64736,-20.52273 7.49406,-37.28068 25.01179,-45.85131 16.66405,-8.15295 41.83221,-4.91032 52.84095,6.80795 3.21267,3.41973 5.16291,3.93828 14.81163,3.93828 6.1115,0 11.09957,-0.54943 11.08461,-1.22096 -0.0663,-2.97292 -15.7117,-30.04218 -24.11087,-41.7158 -12.37118,-17.19416 -38.97835,-42.26176 -55.16848,-51.97627 -26.43652,-15.86265 -58.00918,-26.53132 -89.95653,-30.39707 -8.67186,-1.04936 -82.27754,-1.66926 -198.20172,-1.66926 H 187.78838 v 253.37045 253.37044 l 9.36066,11.45554 c 21.00164,25.70169 47.22634,49.4297 73.6643,66.65116 14.38895,9.37285 38.08316,22.37406 40.77584,22.37406 0.9754,0 1.5506,-92.09407 1.5506,-248.26086 z M 814.43692,428.92483 c -10.48921,-7.06866 -12.27773,-21.94569 -3.84337,-31.96934 10.98008,-13.04909 31.7924,-8.46825 36.52681,8.03963 5.39986,18.82824 -16.48091,34.8486 -32.68344,23.92971 z M 694.99667,351.08475 c 3.03241,-2.8188 5.99248,-3.12405 30.29381,-3.12405 h 26.93302 l 27.49806,-33.60721 c 15.12393,-18.48398 27.88848,-34.2034 28.36566,-34.93205 0.47718,-0.72865 4.14005,-0.1899 8.1397,1.19724 17.39368,6.03235 40.26764,-0.98328 52.12834,-15.98818 30.55658,-38.657 -7.96012,-92.79146 -54.92284,-77.19297 -24.39672,8.1033 -38.51044,36.65378 -29.86067,60.40485 1.95646,5.3722 3.65243,10.8665 3.76881,12.20955 0.1164,1.34305 -11.04636,16.54394 -24.80608,33.77976 l -25.01768,31.33785 h -18.52955 c -16.06059,0 -19.12446,-0.43984 -22.99428,-3.30093 -10.04539,-7.42687 -23.61739,-5.54927 -29.5758,4.0916 -7.36956,11.92421 -2.55693,24.24231 11.3812,29.13059 4.19254,1.47037 13.68571,-0.74091 17.1983,-4.00605 z m 124.53287,-98.89132 c -5.97175,-3.20268 -11.49596,-11.76026 -11.49596,-17.80845 0,-5.92311 4.09727,-14.17654 8.92155,-17.97132 13.2172,-10.39664 32.29884,-1.92336 34.43333,15.29027 1.47596,11.90288 -9.05727,23.46418 -21.37769,23.46418 -2.71403,0 -7.43058,-1.3386 -10.48123,-2.97468 z"
         id="path1"
         sodipodi:nodetypes="ssssscssscsscssssssscssssssssscssssscsscssscccccccsssssssscccccssssscccsscsssssssssssscccsssssssssscsssssssscsssssssssss" />
    </g>
  </g>
</svg>

